<?xml version="1.0" standalone="no"?>
<!DOCTYPE svg PUBLIC "-//W3C//DTD SVG 20010904//EN"
 "http://www.w3.org/TR/2001/REC-SVG-20010904/DTD/svg10.dtd">
<svg version="1.0" xmlns="http://www.w3.org/2000/svg"
 width="352.000000pt" height="352.000000pt" viewBox="0 0 352.000000 352.000000"
 preserveAspectRatio="xMidYMid meet">
<metadata>
Created by potrace 1.11, written by Peter Selinger 2001-2013
</metadata>
<g transform="translate(0.000000,352.000000) scale(0.100000,-0.100000)"
fill="#000000" stroke="none">
<path d="M1308 2455 c-2 -1 -37 -5 -78 -9 -331 -27 -717 -187 -977 -404 -61
-51 -62 -52 -48 -79 8 -16 40 -81 70 -147 42 -90 58 -116 67 -108 119 95 287
194 420 249 133 54 332 104 475 120 132 14 454 6 483 -12 11 -7 11 -9 -19 193
-28 177 -29 182 -55 183 -11 1 -37 3 -56 5 -46 5 -278 13 -282 9z"/>
<path d="M2915 2178 c-106 -175 -317 -299 -592 -347 -116 -20 -384 -26 -498
-11 -33 5 -85 12 -115 16 -116 17 -465 10 -570 -11 -14 -3 -41 -8 -60 -11 -62
-10 -213 -56 -298 -90 -116 -46 -223 -107 -315 -177 -44 -34 -46 -25 30 -183
50 -106 56 -114 73 -102 84 62 123 86 199 123 76 37 180 77 237 90 10 2 46 11
79 19 165 39 462 53 685 31 176 -17 542 -12 651 10 13 3 38 8 54 11 101 18
221 53 295 87 51 23 165 91 186 111 13 12 37 34 55 50 48 43 101 125 94 147
-4 10 -35 69 -71 130 -35 61 -64 114 -64 118 0 3 -6 13 -13 22 -11 14 -16 10
-42 -33z"/>
<path d="M3154 1676 c-58 -61 -165 -156 -177 -156 -3 0 -26 -14 -51 -30 -151
-103 -393 -164 -646 -164 -127 0 -173 3 -265 18 -11 2 -38 6 -61 10 -22 4 -55
11 -73 16 -43 12 -34 1 60 -69 122 -93 266 -154 414 -176 44 -7 209 -7 240 -1
11 2 43 7 70 10 192 26 468 149 708 317 5 4 -29 70 -75 147 l-84 141 -60 -63z"/>
</g>
</svg>
